<svg xmlns="http://www.w3.org/2000/svg" viewBox="0 0 314.09 314.09"><defs><style>.cls-1{fill:#fff;}.cls-2{fill:#13131e;opacity:0.5;}.cls-3{fill:#64655d;}.cls-4{fill:#348ecc;}.cls-5{fill:#6ac5d8;}.cls-6{fill:none;}</style></defs><g id="Livello_2" data-name="Livello 2"><g id="Livello_10" data-name="Livello 10"><path class="cls-1" d="M233,143v28.13L162.75,276.62a6.85,6.85,0,0,1-11.41,0L81.13,171.16V143c0-33.77,22.05-70.17,52.54-83.05l18.88-23.42a5.77,5.77,0,0,1,9,0L180.42,60C210.91,72.86,233,109.26,233,143Z"/><path class="cls-2" d="M226.61,88.38C216.33,71.92,202.23,59,186.69,51.82L169.33,30.28a15.79,15.79,0,0,0-24.57,0L127.4,51.82C111.86,59,97.76,71.92,87.48,88.38,76.94,105.27,71.13,124.68,71.13,143v31.15l1.67,2.52L143,282.16a16.84,16.84,0,0,0,28,0L241.29,176.7l1.67-2.52V143C243,124.68,237.15,105.27,226.61,88.38ZM233,171.16,162.75,276.62a6.85,6.85,0,0,1-11.41,0L81.13,171.16V143c0-33.77,22.05-70.17,52.54-83.05l18.88-23.42a5.77,5.77,0,0,1,9,0L180.42,60C210.91,72.86,233,109.26,233,143Z"/><path class="cls-3" d="M217,137.64H97.1C97.1,82.28,157,59.09,157,59.09S217,82.28,217,137.64Z"/><path class="cls-4" d="M187.55,137.64a2.84,2.84,0,0,1-.52,1.59L159.4,178.17a2.88,2.88,0,0,1-4.71,0l-27.63-38.94a2.84,2.84,0,0,1-.52-1.59,2.81,2.81,0,0,1,.77-2.06l27.63-29.45a2.89,2.89,0,0,1,4.21,0l27.63,29.45A2.81,2.81,0,0,1,187.55,137.64Z"/><path class="cls-5" d="M199.54,137.64h-12a2.81,2.81,0,0,0-.77-2.06l-27.63-29.45a2.89,2.89,0,0,0-4.21,0l-27.63,29.45a2.81,2.81,0,0,0-.77,2.06h-12a14.88,14.88,0,0,1,4-10.27l27.63-29.45a14.89,14.89,0,0,1,21.71,0l27.63,29.45A14.88,14.88,0,0,1,199.54,137.64Z"/><rect class="cls-6" width="314.09" height="314.09"/></g></g></svg>